<?xml version="1.0" standalone="no"?>
<!DOCTYPE svg PUBLIC "-//W3C//DTD SVG 20010904//EN"
 "http://www.w3.org/TR/2001/REC-SVG-20010904/DTD/svg10.dtd">
<svg version="1.0" xmlns="http://www.w3.org/2000/svg"
 width="1024.000000pt" height="1024.000000pt" viewBox="0 0 1024.000000 1024.000000"
 preserveAspectRatio="xMidYMid meet">
<metadata>
Created by potrace 1.16, written by Peter Selinger 2001-2019
</metadata>
<g transform="translate(0.000000,1024.000000) scale(0.100000,-0.100000)"
fill="#000000" stroke="none">
<path d="M4915 10019 c-82 -3 -191 -5 -242 -5 -50 1 -89 -3 -86 -7 2 -4 -10
-8 -29 -8 -18 0 -53 -2 -78 -4 -25 -3 -70 -7 -100 -10 -64 -5 -88 -9 -112 -19
-9 -4 -21 -5 -27 -2 -5 3 -11 2 -13 -4 -1 -5 -21 -12 -43 -13 -22 -2 -48 -7
-58 -12 -10 -4 -20 -5 -23 -2 -3 3 -33 -2 -67 -10 -34 -8 -75 -17 -92 -20 -16
-2 -61 -14 -100 -24 -82 -24 -80 -23 -125 -33 -38 -8 -335 -109 -384 -130 -26
-11 -101 -43 -305 -131 -71 -30 -294 -142 -346 -173 -393 -236 -542 -342 -825
-585 -459 -395 -909 -975 -1170 -1512 -215 -442 -330 -787 -435 -1297 -71
-347 -104 -889 -75 -1233 25 -300 60 -528 115 -760 107 -453 187 -679 394
-1110 109 -226 214 -401 398 -661 l102 -145 -53 -72 c-71 -97 -99 -148 -132
-242 -26 -72 -28 -93 -29 -210 0 -121 2 -136 29 -202 64 -159 205 -272 416
-335 94 -28 289 -35 407 -14 85 15 265 68 325 96 24 12 32 9 103 -41 74 -52
199 -134 260 -169 17 -10 82 -49 145 -87 121 -72 277 -152 395 -201 39 -17
131 -55 205 -86 278 -117 662 -230 903 -265 34 -5 127 -21 207 -35 237 -41
427 -56 724 -56 299 0 505 16 736 56 80 14 173 30 207 35 355 52 853 220 1288
435 184 90 497 280 650 393 52 39 98 71 101 71 4 0 45 -16 93 -34 47 -19 145
-47 216 -61 114 -23 147 -26 265 -22 95 3 160 11 220 26 236 62 414 228 450
421 20 104 5 262 -30 328 -11 19 -17 39 -15 43 3 4 -1 9 -8 12 -6 3 -21 22
-32 43 -27 54 -69 109 -133 175 -50 53 -53 58 -39 75 74 90 209 296 337 514
45 76 164 314 188 375 11 28 31 75 45 105 132 289 272 759 316 1060 5 36 19
124 31 195 46 291 62 702 40 1009 -10 131 -45 405 -55 434 -2 7 -9 52 -15 100
-6 48 -14 101 -19 117 -5 17 -14 57 -21 90 -6 33 -18 80 -25 105 -8 25 -17 61
-20 80 -9 52 -34 143 -50 180 -8 18 -16 46 -15 54 1 5 -3 12 -8 15 -6 4 -13
18 -15 31 -5 31 -9 41 -58 160 -21 52 -39 105 -39 118 0 12 -4 22 -10 22 -5 0
-9 3 -8 8 1 4 -18 46 -41 93 -23 47 -43 97 -45 111 -1 14 -12 38 -24 53 -20
25 -27 46 -23 68 1 5 -3 6 -8 3 -10 -7 -24 22 -16 34 3 4 -2 10 -10 14 -8 3
-15 10 -15 15 0 6 -20 45 -45 87 -25 41 -45 77 -45 79 0 5 -168 274 -193 310
-12 17 -46 66 -77 110 -170 248 -490 604 -746 830 -323 285 -705 544 -1059
718 -428 210 -759 327 -1225 431 -371 83 -785 120 -1175 105z m1454 -375 c763
-214 1457 -621 2027 -1191 762 -762 1227 -1733 1351 -2818 25 -224 25 -784 0
-1000 -91 -768 -349 -1478 -763 -2095 -57 -85 -113 -166 -123 -180 l-20 -25
-68 37 c-229 123 -532 183 -752 149 -40 -6 -76 -9 -79 -6 -3 3 32 45 79 93
233 245 346 426 446 720 33 97 68 171 130 280 47 81 107 191 134 244 530 1053
589 2272 162 3363 -246 627 -640 1182 -1159 1632 -394 341 -897 620 -1429 793
-71 23 -132 44 -135 47 -9 10 73 -8 199 -43z m-2699 -48 c0 -2 -57 -27 -127
-56 -159 -65 -378 -169 -513 -245 -192 -108 -497 -323 -645 -454 -157 -139
-231 -212 -348 -339 -273 -299 -478 -595 -657 -952 -207 -414 -342 -865 -406
-1365 -27 -201 -27 -741 -1 -940 75 -573 237 -1071 506 -1554 40 -72 76 -157
111 -265 110 -335 245 -559 474 -786 58 -57 106 -108 106 -112 0 -5 -21 -8
-47 -8 -194 0 -494 -98 -673 -219 -25 -17 -52 -31 -61 -31 -29 0 -264 345
-399 587 -214 382 -386 830 -476 1238 -121 550 -147 1107 -78 1644 76 596 280
1203 577 1721 371 647 873 1181 1504 1599 338 223 642 370 1098 529 32 11 55
15 55 8z m-1153 -1902 c238 -48 581 -205 903 -414 269 -174 352 -203 499 -175
39 8 75 16 79 19 39 24 544 130 697 146 437 47 944 6 1395 -112 166 -44 209
-51 268 -44 79 9 136 35 309 138 441 265 769 398 1060 430 306 34 478 -77 555
-357 19 -71 22 -105 22 -305 1 -398 -66 -737 -260 -1319 -30 -91 -57 -187 -60
-215 -8 -69 16 -167 65 -264 212 -422 327 -913 300 -1282 -30 -400 -130 -702
-316 -948 -266 -353 -634 -625 -1058 -780 -481 -176 -1151 -274 -1880 -275
-553 -1 -970 48 -1495 177 -502 123 -827 261 -1115 476 -418 311 -660 696
-730 1167 -20 138 -20 478 0 613 18 120 58 295 80 346 l15 37 78 -74 c303
-292 693 -514 1072 -611 317 -81 657 -80 925 3 511 158 902 656 1029 1309 79
407 49 814 -90 1229 -49 149 -178 425 -212 455 -20 17 -27 18 -104 6 -69 -10
-199 -38 -418 -89 -19 -5 -63 -18 -98 -30 -116 -38 -174 -46 -260 -34 -94 12
-165 43 -280 121 -150 102 -165 112 -297 191 -107 64 -216 126 -305 172 -8 4
-73 34 -145 67 -238 109 -426 155 -552 135 -101 -16 -175 -48 -229 -98 -26
-25 -50 -43 -52 -40 -9 9 60 104 104 145 110 101 278 129 501 84z m1544 -2615
c34 -36 49 -85 48 -154 -2 -142 -98 -219 -182 -145 -73 64 -78 224 -8 299 24
25 37 31 71 31 34 0 47 -6 71 -31z m4362 -2733 c261 -67 503 -225 631 -413 94
-138 121 -294 74 -420 -39 -104 -156 -198 -291 -235 -26 -6 -50 -9 -53 -5 -4
4 11 53 34 110 53 132 54 136 42 176 -16 57 -46 81 -101 81 -73 0 -100 -34
-178 -219 -36 -84 -70 -155 -76 -157 -16 -7 -145 22 -231 51 -92 31 -214 91
-214 106 0 6 41 107 90 225 99 234 107 272 70 343 -52 104 -167 119 -260 35
-31 -29 -51 -65 -106 -195 -37 -88 -71 -162 -76 -165 -9 -6 -71 89 -97 149
-108 251 34 491 325 552 104 22 294 13 417 -19z m-6099 -2 c231 -62 348 -237
302 -452 -15 -73 -82 -214 -101 -215 -6 0 -44 67 -85 151 -41 83 -88 165 -104
181 -39 40 -105 65 -155 58 -83 -11 -131 -73 -131 -171 0 -50 10 -76 100 -262
55 -114 100 -212 100 -219 0 -15 -128 -88 -215 -121 -65 -25 -198 -64 -217
-64 -4 0 -43 71 -87 158 -43 86 -90 168 -104 181 -16 14 -43 25 -70 28 -38 5
-48 1 -77 -24 -24 -22 -33 -39 -37 -73 -4 -39 2 -59 46 -148 49 -100 60 -132
43 -132 -4 0 -34 7 -65 15 -130 34 -242 117 -288 214 -31 64 -38 190 -14 276
79 294 459 577 850 635 81 12 236 4 309 -16z m5181 -161 c-54 -142 -40 -336
37 -488 42 -83 124 -188 205 -265 46 -44 81 -84 78 -90 -11 -18 -187 -135
-345 -230 -703 -424 -1560 -660 -2395 -660 -896 0 -1785 262 -2540 748 -155
99 -150 81 -41 184 116 108 176 186 232 301 59 122 78 213 71 344 -3 57 -2
103 3 103 5 0 48 -20 97 -45 48 -24 117 -51 153 -59 36 -7 124 -32 195 -54
122 -38 376 -103 455 -117 19 -3 53 -10 75 -15 177 -41 429 -77 770 -111 143
-14 923 -14 1085 0 578 52 891 108 1300 232 219 67 273 89 426 169 71 38 133
69 138 69 4 1 5 -7 1 -16z"/>
<path d="M7500 7255 c-173 -52 -488 -230 -537 -304 -48 -72 -54 -171 -15 -248
11 -21 60 -74 108 -118 119 -106 211 -202 299 -310 40 -49 83 -100 96 -112 67
-62 184 -73 271 -26 75 40 106 92 151 249 66 231 78 298 84 466 5 145 4 163
-17 227 -26 81 -73 142 -134 173 -65 34 -197 35 -306 3z"/>
<path d="M6188 5537 c-147 -55 -258 -187 -303 -362 -19 -76 -19 -233 0 -310
38 -150 136 -279 253 -337 60 -30 75 -33 157 -33 80 0 97 3 156 31 128 61 227
196 263 361 56 252 -53 523 -249 623 -58 29 -78 34 -153 37 -56 2 -100 -2
-124 -10z m-15 -355 c37 -33 57 -88 57 -157 0 -79 -16 -122 -59 -158 -45 -38
-84 -36 -126 6 -105 105 -45 354 79 332 16 -3 38 -13 49 -23z"/>
<path d="M4970 4419 c-93 -11 -223 -50 -271 -83 -47 -32 -73 -86 -64 -134 16
-90 112 -193 239 -258 45 -23 76 -45 76 -55 0 -24 -53 -101 -100 -143 -79 -71
-219 -115 -326 -101 -69 8 -158 52 -220 109 -57 51 -67 47 -55 -21 9 -49 48
-118 88 -155 41 -39 123 -77 184 -85 l53 -8 26 -70 c39 -109 68 -155 139 -225
73 -72 157 -121 247 -145 76 -20 212 -20 288 0 178 47 331 192 391 369 27 80
31 86 63 86 39 0 123 42 172 87 52 46 90 123 90 181 0 23 -2 42 -5 42 -3 0
-23 -18 -45 -40 -156 -156 -401 -160 -565 -9 -48 44 -100 132 -90 150 4 5 26
19 49 30 149 69 266 232 236 324 -40 120 -302 188 -600 154z m315 -123 c18
-13 17 -15 -15 -35 -77 -47 -225 -52 -316 -11 -39 16 -44 22 -35 34 17 20 42
23 207 25 106 1 145 -2 159 -13z"/>
<path d="M2871 1643 c-35 -131 -70 -265 -79 -299 -8 -33 -13 -67 -10 -76 7
-16 182 -72 202 -65 7 3 41 81 76 174 34 92 66 172 71 177 4 5 21 -21 38 -58
35 -78 46 -81 117 -31 40 29 50 32 53 19 1 -9 -16 -92 -40 -183 -24 -92 -40
-173 -37 -182 7 -19 195 -76 208 -63 8 8 191 494 210 556 12 39 -3 50 -104 82
-144 45 -131 46 -225 -28 -46 -36 -87 -64 -91 -61 -4 2 -22 46 -40 97 -18 51
-37 99 -43 105 -10 14 -192 73 -224 73 -18 0 -27 -28 -82 -237z"/>
<path d="M7002 1789 c-172 -57 -275 -96 -279 -106 -9 -22 38 -163 58 -173 11
-6 39 -2 83 12 40 13 70 18 76 12 5 -5 39 -90 75 -189 37 -99 73 -186 80 -193
10 -11 27 -9 97 12 131 40 127 33 93 162 -15 60 -40 150 -55 200 -15 51 -25
96 -21 102 3 5 32 18 64 28 31 10 64 26 73 35 15 16 14 24 -6 86 -21 62 -44
103 -59 103 -3 0 -129 -41 -279 -91z"/>
<path d="M6401 1630 c-74 -16 -141 -36 -149 -43 -11 -12 -17 -81 -27 -328 -8
-178 -10 -318 -5 -323 10 -10 178 20 198 36 6 6 12 23 12 39 0 60 15 76 77 89
32 6 66 14 75 16 13 4 27 -8 49 -45 18 -28 37 -51 43 -51 27 1 179 39 187 47
9 9 -43 122 -201 438 -65 130 -78 150 -100 152 -14 1 -85 -11 -159 -27z"/>
<path d="M3786 1608 c-6 -24 -32 -195 -66 -417 -11 -73 -20 -148 -20 -166 0
-32 2 -34 53 -44 114 -24 146 -28 157 -21 6 4 45 141 87 304 64 253 73 300 62
312 -14 13 -197 54 -245 54 -16 0 -25 -7 -28 -22z"/>
<path d="M5795 1545 c-61 -23 -108 -66 -146 -137 -32 -60 -34 -68 -34 -163 0
-91 3 -106 31 -166 63 -132 154 -199 271 -199 48 0 76 6 113 25 75 38 76 52 6
89 -34 18 -37 18 -54 3 -25 -23 -74 -21 -106 4 -37 29 -61 114 -46 168 15 55
46 75 104 67 l43 -7 72 79 c39 44 71 87 71 96 0 26 -74 99 -125 125 -58 29
-146 36 -200 16z"/>
<path d="M4166 1528 c-7 -35 -29 -569 -25 -598 4 -24 9 -26 104 -37 79 -10
102 -10 111 0 6 6 22 82 34 167 12 85 26 159 31 164 9 10 33 -40 99 -209 60
-149 64 -153 179 -166 51 -6 97 -7 102 -2 4 4 24 116 43 248 20 132 41 269 47
303 10 52 9 66 -2 77 -17 16 -257 41 -271 27 -5 -5 -11 -67 -14 -138 -6 -141
-10 -174 -23 -174 -4 0 -38 72 -75 159 -37 88 -73 165 -81 171 -13 10 -153 29
-222 30 -26 0 -34 -5 -37 -22z"/>
<path d="M5005 1480 c-7 -11 23 -602 31 -625 5 -12 27 -15 110 -15 99 0 105 1
113 23 11 29 35 602 27 616 -9 14 -272 15 -281 1z"/>
</g>
</svg>
